<svg width="43" height="33" viewBox="0 0 43 33" fill="none" xmlns="http://www.w3.org/2000/svg">
<path d="M16.0911 10.3088L28.6041 16.4989L16.0911 22.6911V10.3088Z" fill="#FF9000"/>
<path d="M40.9359 5.89883C39.4971 3.31674 37.0728 1.96483 33.9744 1.17368C30.5997 0.315154 25.3111 0 21.4989 0C17.6866 0 12.4003 0.315154 9.02565 1.17368C5.92501 1.96483 3.50064 3.31674 2.06414 5.89883C0.62543 8.47659 0 11.1217 0 16.4989C0 21.8761 0.62543 24.5191 2.06414 27.1012C3.50064 29.6811 5.92501 31.033 9.02565 31.8241C12.4003 32.687 17.6866 33 21.4989 33C25.3111 33 30.5997 32.687 33.9744 31.8241C37.0728 31.033 39.4971 29.6811 40.9359 27.1012C42.3746 24.5191 43 21.8761 43 16.4989C42.9978 11.1217 42.3724 8.47659 40.9359 5.89883ZM35.5854 16.4989V26.184C35.5854 26.184 28.0648 27.062 21.4989 27.062C14.9352 27.062 7.41014 26.184 7.41014 26.184V16.4989V6.81387C7.41014 6.81387 14.933 5.93578 21.4989 5.93578C28.0648 5.93578 35.5854 6.81387 35.5854 6.81387V16.4989Z" fill="#1789FA"/>
</svg>
